HIERARCHY
ROOT Hips
{
	OFFSET 0.000000 0.000000 0.000000
	CHANNELS 6 Xposition Yposition Zposition Zrotation Yrotation Xrotation 
	JOINT LHipJoint
	{
		OFFSET 0.000000 0.000000 0.000000
		CHANNELS 3 Zrotation Yrotation Xrotation
		JOINT LeftUpLeg
		{
			OFFSET 1.363060 -1.794630 0.839290
			CHANNELS 3 Zrotation Yrotation Xrotation
			JOINT LeftLeg
			{
				OFFSET 2.448110 -6.726130 0.000000
				CHANNELS 3 Zrotation Yrotation Xrotation
				JOINT LeftFoot
				{
					OFFSET 2.562200 -7.039590 0.000000
					CHANNELS 3 Zrotation Yrotation Xrotation
					JOINT LeftToeBase
					{
						OFFSET 0.157640 -0.433110 2.322550
						CHANNELS 3 Zrotation Yrotation Xrotation
						End Site
						{
							OFFSET 0.000000 0.000000 0.000000
						}
					}
				}
			}
		}
	}
	JOINT RHipJoint
	{
		OFFSET 0.000000 0.000000 0.000000
		CHANNELS 3 Zrotation Yrotation Xrotation
		JOINT RightUpLeg
		{
			OFFSET -1.305520 -1.794630 0.839290
			CHANNELS 3 Zrotation Yrotation Xrotation
			JOINT RightLeg
			{
				OFFSET -2.542530 -6.985550 0.000000
				CHANNELS 3 Zrotation Yrotation Xrotation
				JOINT RightFoot
				{
					OFFSET -2.568260 -7.056230 0.000000
					CHANNELS 3 Zrotation Yrotation Xrotation
					JOINT RightToeBase
					{
						OFFSET -0.164730 -0.452590 2.363150
						CHANNELS 3 Zrotation Yrotation Xrotation
						End Site
						{
							OFFSET 0.000000 0.000000 0.000000
						}
					}
				}
			}
		}
	}
}
MOTION
Frames: 16
Frame Time: 0.008333
10.400895 16.893286 1.086908 -169.776799 -89.047041 -151.753390 -9.266841 -0.941210 2.590821 -4.157631 -7.794359 -47.125822 -1.642354 -0.647631 20.340612 3.830211 14.020652 -19.222036 -2.433600 0.000001 -41.718400 7.434218 0.902633 2.541065 5.545751 8.953616 -46.484687 2.264029 0.404917 22.089986 -3.775724 -9.669391 -20.603041 1.822900 -0.000000 -52.267600
10.397576 16.817888 1.090121 -158.837990 -88.981666 -161.575690 -8.912923 -0.858492 2.615073 -4.052446 -8.323815 -49.437871 -1.664078 -0.477551 22.596654 3.966972 13.990644 -20.535069 -2.766800 -0.000000 -41.559400 7.653352 1.162706 2.565523 5.237332 9.227887 -49.142784 2.193991 0.070648 24.963219 -3.831813 -9.478839 -21.624091 2.004000 -0.000000 -51.995100
10.393834 16.731094 1.093083 -147.448569 -89.097364 -171.816503 -8.554352 -0.824951 2.630558 -3.977326 -8.879125 -51.868571 -1.684957 -0.310276 25.034933 4.096175 13.878033 -21.916245 -3.113601 -0.000000 -41.415800 7.887919 1.369555 2.623151 4.879721 9.436605 -51.927101 2.125090 -0.308071 27.930364 -3.869222 -9.230589 -22.677869 2.171800 -0.000000 -51.719600
10.389185 16.632149 1.095843 -136.658065 -89.360051 178.580347 -8.262764 -0.854939 2.655421 -3.948323 -9.479456 -54.428167 -1.699597 -0.133197 27.634671 4.217839 13.703156 -23.332039 -3.460700 0.000001 -41.282700 8.070380 1.507853 2.707846 4.440076 9.577137 -54.841123 2.054781 -0.716477 30.982601 -3.887275 -8.919860 -23.747315 2.320500 -0.000001 -51.427700
10.382848 16.520170 1.098377 -127.117589 -89.690196 170.279761 -8.053910 -0.919812 2.709826 -3.952532 -10.120212 -57.139664 -1.704487 0.068779 30.374735 4.333138 13.490437 -24.750691 -3.794800 -0.000001 -41.149201 8.187422 1.604236 2.818217 3.911611 9.674604 -57.889267 1.975972 -1.135367 34.116706 -3.887082 -8.547541 -24.816389 2.447400 0.000000 -51.096500
10.374351 16.394575 1.100749 60.793944 -89.968781 -16.334907 -7.908437 -0.987382 2.803171 -3.960634 -10.787836 -60.013326 -1.695336 0.302843 33.240613 4.441148 13.254225 -26.138943 -4.103699 -0.000000 -41.001900 8.259536 1.690472 2.956945 3.308548 9.755309 -61.063459 1.882629 -1.552736 37.321108 -3.872515 -8.129026 -25.874594 2.552801 -0.000000 -50.699600
10.363486 16.255221 1.103204 67.000432 -89.640943 -21.192494 -7.803390 -1.041227 2.935946 -3.943884 -11.472658 -63.043739 -1.666732 0.568425 36.221169 4.539860 13.003222 -27.465061 -4.378600 0.000000 -40.822900 8.310168 1.785168 3.126367 2.649353 9.831983 -64.345784 1.771206 -1.964117 40.579402 -3.849526 -7.689999 -26.918593 2.640000 -0.000000 -50.213300
10.349976 16.101917 1.105752 71.792843 -89.328284 -24.588422 -7.723446 -1.078686 3.107941 -3.883786 -12.174388 -66.224001 -1.613381 0.860421 39.306092 4.628682 12.747797 -28.705024 -4.615500 0.000000 -40.588401 8.354740 1.893554 3.331078 1.941890 9.906724 -67.727841 1.638975 -2.369650 43.882419 -3.825297 -7.258647 -27.954633 2.715200 0.000000 -49.614300
10.333790 15.934904 1.108548 75.380691 -89.030603 -26.744638 -7.661927 -1.103712 3.314786 -3.767133 -12.889203 -69.529922 -1.530941 1.173133 42.481273 4.707500 12.500102 -29.845003 -4.815500 -0.000000 -40.272700 8.399588 2.016633 3.568700 1.197033 9.974127 -71.184662 1.484642 -2.769693 47.219957 -3.806822 -6.862909 -28.990283 2.786601 -0.000000 -48.893000
10.315047 15.755025 1.111872 77.925211 -88.747532 -27.841523 -7.615932 -1.123368 3.548705 -3.585532 -13.610592 -72.924430 -1.416522 1.500500 45.729213 4.777234 12.274532 -30.882507 -4.984500 -0.000001 -39.852000 8.446295 2.153916 3.831133 0.429351 10.024669 -74.677640 1.308192 -3.164592 50.580151 -3.800032 -6.527203 -30.032851 2.863200 0.000000 -48.058900
10.294007 15.563369 1.115837 79.610955 -88.476529 -28.084374 -7.583373 -1.145241 3.801096 -3.337021 -14.331585 -76.366877 -1.269248 1.836364 49.030535 4.840472 12.087206 -31.827063 -5.132800 -0.000000 -39.309800 8.494631 2.304104 4.109327 -0.348137 10.048560 -78.168632 1.109796 -3.554933 53.952851 -3.809795 -6.271689 -31.089056 2.953800 -0.000000 -47.141100
10.270837 15.361334 1.120580 80.589763 -88.214906 -27.645311 -7.562266 -1.176095 4.063052 -3.023690 -15.045325 -79.814705 -1.089835 2.174813 52.364052 4.901040 11.954962 -32.696342 -5.273100 -0.000001 -38.646200 8.543601 2.465611 4.393477 -1.122255 10.037461 -81.617473 0.889898 -3.940934 57.326281 -3.839427 -6.111273 -32.162359 3.066800 -0.000000 -46.182900
10.245784 15.150839 1.126283 80.953300 -87.960879 -26.637519 -7.550510 -1.221708 4.324211 -2.650458 -15.744059 -83.220744 -0.880421 2.510419 55.706532 4.962866 11.892553 -33.512134 -5.419100 0.000000 -37.884400 8.591784 2.636975 4.671931 -1.877403 9.985208 -84.979291 0.649445 -4.322232 60.684175 -3.890110 -6.054701 -33.249414 3.208299 -0.000000 -45.251000
10.218871 14.933966 1.133074 80.799826 -87.711756 -25.174728 -7.545666 -1.285896 4.575693 -2.225384 -16.422510 -86.541620 -0.644273 2.838175 59.033849 5.029877 11.911651 -34.297053 -5.583300 -0.000000 -37.071700 8.638296 2.816252 4.935175 -2.601327 9.888926 -88.214757 0.389272 -4.697796 64.007728 -3.961275 -6.104990 -34.341503 3.382800 0.000000 -44.420100
10.190181 14.713094 1.141021 80.218843 -87.464771 -23.361983 -7.544924 -1.370660 4.810139 -1.757801 -17.077400 -89.738734 -0.385236 3.153839 62.321545 5.105150 12.019770 -35.069421 -5.776100 -0.000000 -36.276100 8.682647 3.001469 5.175485 -3.284346 9.749293 -91.289195 0.110169 -5.065947 67.276276 -4.050572 -6.259688 -35.424139 3.591800 -0.000000 -43.764200
10.159466 14.490626 1.150118 79.294914 -87.217745 -21.292017 -7.545837 -1.475852 5.022536 -1.257549 -17.707344 -92.778741 -0.107475 3.453630 65.545533 5.190411 12.219037 -35.841632 -6.004500 0.000000 -35.574500 8.724967 3.190586 5.388265 -3.921581 9.570413 -94.174633 -0.186911 -5.423957 70.467232 -4.154495 -6.512089 -36.479587 3.834900 0.000000 -43.348000
